Coordinates
version=1
nRows=26
nColumns=27
inDegrees=yes

Units are S.I. units (second, meters, Newtons, ...)
If the header above contains a line with 'inDegrees', this indicates whether rotational values are in degrees (yes) or radians (no).

endheader
time	pelvis_rotation	pelvis_tilt	pelvis_list	pelvis_tx	pelvis_ty	pelvis_tz	hip_flexion_r	hip_adduction_r	hip_rotation_r	knee_angle_r	knee_rotation_r	knee_adduction_r	knee_angle_r_beta	ankle_angle_r	subtalar_angle_r	mtp_angle_r	hip_flexion_l	hip_adduction_l	hip_rotation_l	knee_angle_l	knee_rotation_l	knee_adduction_l	knee_angle_l_beta	ankle_angle_l	subtalar_angle_l	mtp_angle_l
      3.94500000	      3.52092071	    -30.94854770	      4.68214304	      0.02644491	      0.62630360	     -1.15713162	     98.22910082	    -44.19567900	      2.50834387	     83.64032792	      0.00000000	      9.91571565	      1.45979911	     11.10767970	      0.00000000	      0.00000000	     93.04289887	    -31.10255871	      2.14986435	     76.27110981	      0.00000000	     -9.92872654	      1.33118199	      9.15377816	      0.00000000	      0.00000000
      3.95000000	      3.53369314	    -30.88788498	      4.95999404	      0.02659405	      0.62460504	     -1.15697704	     98.82291634	    -44.18812607	      3.19357869	     84.01192438	      0.00000000	      9.91621195	      1.46628469	     11.20719126	      0.00000000	      0.00000000	     93.01314578	    -31.17633549	      1.93280660	     76.51066171	      0.00000000	     -9.92922059	      1.33536296	      9.21167103	      0.00000000	      0.00000000
      3.95500000	      3.58988248	    -30.92447271	      4.90702417	      0.02673336	      0.62302007	     -1.15679233	     99.06607094	    -44.27777375	      3.29274518	     84.29731533	      0.00000000	      9.91664932	      1.47126570	     11.28603287	      0.00000000	      0.00000000	     93.36698563	    -31.16979671	      2.20292719	     76.80268800	      0.00000000	     -9.92962007	      1.34045978	      9.29031122	      0.00000000	      0.00000000
      3.96000000	      3.52381202	    -30.92026735	      4.94059343	      0.02683832	      0.62140742	     -1.15659589	     99.42485399	    -44.20346620	      3.62842378	     84.60334607	      0.00000000	      9.91704328	      1.47660695	     11.37051265	      0.00000000	      0.00000000	     93.55735628	    -31.29856976	      2.27172730	     77.07133681	      0.00000000	     -9.93017045	      1.34514859	      9.33804281	      0.00000000	      0.00000000
      3.96500000	      3.54570127	    -30.87467786	      4.93898974	      0.02704181	      0.61984639	     -1.15641966	     99.64439686	    -44.26390143	      3.81245442	     84.89021635	      0.00000000	      9.91760658	      1.48161378	     11.50892200	      0.00000000	      0.00000000	     93.76370638	    -31.33770902	      2.42238129	     77.34284834	      0.00000000	     -9.93065564	      1.34988736	      9.39573519	      0.00000000	      0.00000000
      3.97000000	      3.51674481	    -30.88564546	      4.94442099	      0.02718279	      0.61824263	     -1.15624110	     99.96178571	    -44.24372650	      4.06689071	     85.18551001	      0.00000000	      9.91798109	      1.48676762	     11.60184242	      0.00000000	      0.00000000	     94.00424649	    -31.41982513	      2.55917907	     77.62236487	      0.00000000	     -9.93105419	      1.35476584	      9.48679891	      0.00000000	      0.00000000
      3.97500000	      3.50851779	    -30.89023366	      4.92328904	      0.02737216	      0.61667490	     -1.15605154	    100.22135139	    -44.25445797	      4.25609909	     85.46998781	      0.00000000	      9.91829296	      1.49173270	     11.71779889	      0.00000000	      0.00000000	     94.26128061	    -31.47783207	      2.74435633	     77.89548024	      0.00000000	     -9.93138745	      1.35953260	      9.54971455	      0.00000000	      0.00000000
      3.98000000	      3.49530724	    -30.87573161	      4.92387476	      0.02751195	      0.61508736	     -1.15591622	    100.50119366	    -44.26507877	      4.48185098	     85.75765480	      0.00000000	      9.91882561	      1.49675344	     11.80084005	      0.00000000	      0.00000000	     94.48717423	    -31.53617031	      2.89260216	     78.17282127	      0.00000000	     -9.93180688	      1.36437312	      9.62982677	      0.00000000	      0.00000000
      3.98500000	      3.47793369	    -30.88624250	      4.93862403	      0.02764479	      0.61346620	     -1.15574138	    100.83080488	    -44.25626178	      4.74210238	     86.05851936	      0.00000000	      9.91918306	      1.50200451	     11.92314581	      0.00000000	      0.00000000	     94.73175692	    -31.59788343	      3.03571237	     78.44812669	      0.00000000	     -9.93219072	      1.36917810	      9.69818271	      0.00000000	      0.00000000
      3.99000000	      3.46396782	    -30.87223157	      4.91999969	      0.02780260	      0.61189786	     -1.15559158	    101.08095381	    -44.27197388	      4.92909722	     86.33802872	      0.00000000	      9.91960335	      1.50688287	     11.99285397	      0.00000000	      0.00000000	     94.96436497	    -31.64171011	      3.22426388	     78.71987352	      0.00000000	     -9.93259151	      1.37392098	      9.78988526	      0.00000000	      0.00000000
      3.99500000	      3.46587986	    -30.88789881	      4.86191660	      0.02796684	      0.61026258	     -1.15544058	    101.31904284	    -44.31462809	      5.05500679	     86.62268674	      0.00000000	      9.92004977	      1.51185109	     12.09766906	      0.00000000	      0.00000000	     95.28439821	    -31.67553752	      3.47733891	     79.01269016	      0.00000000	     -9.93290363	      1.37903159	      9.85955541	      0.00000000	      0.00000000
      4.00000000	      3.37117701	    -30.93725308	      4.63122545	      0.02811725	      0.60872559	     -1.15525429	    101.38721626	    -44.28185371	      4.93861476	     86.85877847	      0.00000000	      9.92035163	      1.51597167	     12.20596595	      0.00000000	      0.00000000	     95.72817499	    -31.78306947	      3.90342491	     79.32225669	      0.00000000	     -9.93331691	      1.38443455	      9.95788382	      0.00000000	      0.00000000
      4.00500000	      3.36615937	    -30.91937324	      4.76944045	      0.02823628	      0.60710919	     -1.15510825	    101.83590449	    -44.26889106	      5.38069648	     87.17232224	      0.00000000	      9.92084607	      1.52144404	     12.32867096	      0.00000000	      0.00000000	     95.82963788	    -31.82817541	      3.89968708	     79.55700747	      0.00000000	     -9.93363953	      1.38853172	     10.04718230	      0.00000000	      0.00000000
      4.01000000	      3.38275371	    -30.92271647	      4.73163382	      0.02842607	      0.60543662	     -1.15498690	    102.09802830	    -44.34034900	      5.53562813	     87.47179839	      0.00000000	      9.92123396	      1.52667088	     12.39830375	      0.00000000	      0.00000000	     96.13685219	    -31.84655335	      4.13595191	     79.85970681	      0.00000000	     -9.93391511	      1.39381482	     10.10665271	      0.00000000	      0.00000000
      4.01500000	      3.34447248	    -30.91565888	      4.77356379	      0.02854925	      0.60383254	     -1.15484263	    102.44873008	    -44.31726119	      5.83110389	     87.76241032	      0.00000000	      9.92166597	      1.53174302	     12.48266914	      0.00000000	      0.00000000	     96.32445099	    -31.92339175	      4.23443268	     80.12328616	      0.00000000	     -9.93426795	      1.39841515	     10.18865839	      0.00000000	      0.00000000
      4.02000000	      3.22571272	    -30.90503205	      4.80919360	      0.02867324	      0.60219519	     -1.15467636	    102.81370207	    -44.20258327	      6.16546454	     88.05712093	      0.00000000	      9.92199285	      1.53688669	     12.56595131	      0.00000000	      0.00000000	     96.48775996	    -32.09792126	      4.28579455	     80.39218493	      0.00000000	     -9.93463932	      1.40310832	     10.26906580	      0.00000000	      0.00000000
      4.02500000	      3.11731319	    -31.01526188	      4.44855788	      0.02875094	      0.60065053	     -1.15447583	    102.79270838	    -44.18874763	      5.84899383	     88.26864157	      0.00000000	      9.92234770	      1.54057842	     12.67866854	      0.00000000	      0.00000000	     97.11953037	    -32.19101085	      4.90024387	     80.72767337	      0.00000000	     -9.93501142	      1.40896370	     10.33659524	      0.00000000	      0.00000000
      4.03000000	      3.23171251	    -30.95809102	      4.61728650	      0.02895016	      0.59904223	     -1.15433119	    103.21095048	    -44.33425726	      6.25762859	     88.59021390	      0.00000000	      9.92286886	      1.54619092	     12.73895647	      0.00000000	      0.00000000	     97.19328014	    -32.12069417	      4.91261670	     80.94927141	      0.00000000	     -9.93518537	      1.41283131	     10.40501022	      0.00000000	      0.00000000
      4.03500000	      3.09881617	    -30.94303980	      4.70745612	      0.02906721	      0.59741601	     -1.15417195	    103.63699994	    -44.18788239	      6.68132926	     88.88728818	      0.00000000	      9.92328768	      1.55137584	     12.83702804	      0.00000000	      0.00000000	     97.29726724	    -32.31752061	      4.88440655	     81.20555880	      0.00000000	     -9.93559276	      1.41730437	     10.49901736	      0.00000000	      0.00000000
      4.04000000	      3.01676088	    -30.97397312	      4.67622714	      0.02916364	      0.59586486	     -1.15397764	    103.93845195	    -44.12883626	      6.87255347	     89.15604060	      0.00000000	      9.92364266	      1.55606646	     12.92670672	      0.00000000	      0.00000000	     97.56821152	    -32.44135447	      5.05037601	     81.46692934	      0.00000000	     -9.93590602	      1.42186615	     10.55290982	      0.00000000	      0.00000000
      4.04500000	      2.92130500	    -31.05630963	      4.37721508	      0.02923293	      0.59440216	     -1.15373106	    103.94571847	    -44.12312889	      6.63031090	     89.36655242	      0.00000000	      9.92398157	      1.55974058	     13.02658532	      0.00000000	      0.00000000	     98.11025591	    -32.52348931	      5.58211579	     81.75980208	      0.00000000	     -9.93620815	      1.42697774	     10.60345092	      0.00000000	      0.00000000
      4.05000000	      2.94218943	    -31.02517963	      4.61013117	      0.02938267	      0.59278536	     -1.15356980	    104.49827548	    -44.12918839	      7.19161758	     89.69219830	      0.00000000	      9.92444934	      1.56542417	     13.08151096	      0.00000000	      0.00000000	     98.12266471	    -32.57869460	      5.44864521	     81.97416898	      0.00000000	     -9.93649385	      1.43071915	     10.68829322	      0.00000000	      0.00000000
      4.05500000	      2.86838796	    -31.15870441	      4.27670674	      0.02946508	      0.59136887	     -1.15330131	    104.50069430	    -44.15886467	      6.87201688	     89.89648145	      0.00000000	      9.92485099	      1.56898959	     13.25273058	      0.00000000	      0.00000000	     98.74746031	    -32.63942250	      6.02650305	     82.26379934	      0.00000000	     -9.93679947	      1.43577415	     10.73713833	      0.00000000	      0.00000000
      4.06000000	      2.92410200	    -31.09952896	      4.48608294	      0.02955264	      0.58980337	     -1.15317097	    104.98306102	    -44.20983102	      7.37826509	     90.19454944	      0.00000000	      9.92528382	      1.57419186	     13.20437678	      0.00000000	      0.00000000	     98.76210142	    -32.63216916	      5.96085230	     82.47613789	      0.00000000	     -9.93697988	      1.43948016	     10.78767305	      0.00000000	      0.00000000
      4.06500000	      2.86496567	    -31.16147457	      4.47022887	      0.02962372	      0.58829450	     -1.15287193	    105.32623136	    -44.16249765	      7.57648932	     90.48163856	      0.00000000	      9.92561045	      1.57920251	     13.33576808	      0.00000000	      0.00000000	     99.05652009	    -32.75119290	      6.10804557	     82.70928284	      0.00000000	     -9.93734351	      1.44354931	     10.84487178	      0.00000000	      0.00000000
      4.07000000	      2.85376694	    -31.23871128	      4.31308467	      0.02968234	      0.58694744	     -1.15263318	    105.45751082	    -44.22033043	      7.48546118	     90.67671393	      0.00000000	      9.92592667	      1.58260721	     13.39623404	      0.00000000	      0.00000000	     99.47640488	    -32.75999223	      6.48457271	     82.94882477	      0.00000000	     -9.93754062	      1.44773010	     10.90003978	      0.00000000	      0.00000000
